<?xml version="1.0" encoding="utf-8"?>
<!-- Generator: Adobe Illustrator 16.0.0, SVG Export Plug-In . SVG Version: 6.00 Build 0)  -->
<!DOCTYPE svg PUBLIC "-//W3C//DTD SVG 1.1 Basic//EN" "http://www.w3.org/Graphics/SVG/1.1/DTD/svg11-basic.dtd">
<svg version="1.1" baseProfile="basic" id="图层_1"
	 xmlns="http://www.w3.org/2000/svg" xmlns:xlink="http://www.w3.org/1999/xlink" x="0px" y="0px" width="16px" height="16px"
	 viewBox="0 0 16 16" xml:space="preserve">
<g>
	<path fill="#231815" d="M12.719,5.219C12.719,2.889,10.831,1,8.5,1C8.461,1,8.424,1.011,8.385,1.012C7.773,0.394,6.938,0,6,0
		C4.137,0,2.625,1.512,2.625,3.375c0,1.064,0.503,2.003,1.272,2.621c-0.001,0-0.002-0.001-0.003-0.002C1.621,6.848,0,9.035,0,11.607
		h0.004C0.004,11.613,0,11.619,0,11.625C0,11.832,0.168,12,0.375,12s0.375-0.168,0.375-0.375c0-0.006-0.004-0.012-0.004-0.018h0.003
		c0-2.387,1.601-4.381,3.779-5.02c0.262,0.76,0.731,1.415,1.346,1.908C5.872,8.495,5.87,8.494,5.868,8.492
		C3.026,9.559,1,12.294,1,15.509h0.005C1.005,15.518,1,15.523,1,15.531C1,15.791,1.21,16,1.469,16s0.469-0.209,0.469-0.469
		c0-0.008-0.005-0.014-0.005-0.022h0.004c0-3.092,2.142-5.677,5.018-6.372C6.952,9.136,6.951,9.135,6.949,9.134
		C7.43,9.325,7.951,9.438,8.5,9.438C10.831,9.438,12.719,7.549,12.719,5.219z M4.293,5.335c-0.555-0.479-0.918-1.169-0.918-1.96
		C3.375,1.926,4.551,0.75,6,0.75c0.517,0,0.996,0.155,1.401,0.413c-1.793,0.485-3.12,2.108-3.12,4.056
		C4.281,5.259,4.292,5.296,4.293,5.335z M5.219,5.219c0-1.813,1.47-3.281,3.281-3.281c1.813,0,3.281,1.469,3.281,3.281
		S10.313,8.5,8.5,8.5C6.688,8.5,5.219,7.031,5.219,5.219z"/>
	<path fill="#231815" d="M15.5,12H13V9.5C13,9.224,12.776,9,12.5,9S12,9.224,12,9.5V12H9.5C9.224,12,9,12.224,9,12.5
		S9.224,13,9.5,13H12v2.5c0,0.276,0.224,0.5,0.5,0.5s0.5-0.224,0.5-0.5V13h2.5c0.276,0,0.5-0.224,0.5-0.5S15.776,12,15.5,12z"/>
</g>
</svg>
